<svg width="44" height="44" viewBox="0 0 44 44" fill="none" xmlns="http://www.w3.org/2000/svg">
<path d="M12.8333 40.3333C11.825 40.3333 10.9621 39.9746 10.2447 39.2572C9.52723 38.5397 9.1679 37.6762 9.16668 36.6667C9.16546 35.6571 9.52479 34.7942 10.2447 34.078C10.9646 33.3618 11.8275 33.0024 12.8333 33C13.8392 32.9976 14.7027 33.3569 15.4238 34.078C16.145 34.7991 16.5037 35.662 16.5 36.6667C16.4963 37.6713 16.1376 38.5348 15.4238 39.2572C14.7101 39.9795 13.8466 40.3382 12.8333 40.3333ZM31.1667 40.3333C30.1583 40.3333 29.2955 39.9746 28.578 39.2572C27.8606 38.5397 27.5012 37.6762 27.5 36.6667C27.4988 35.6571 27.8581 34.7942 28.578 34.078C29.2979 33.3618 30.1608 33.0024 31.1667 33C32.1726 32.9976 33.0361 33.3569 33.7572 34.078C34.4783 34.7991 34.837 35.662 34.8333 36.6667C34.8297 37.6713 34.471 38.5348 33.7572 39.2572C33.0434 39.9795 32.1799 40.3382 31.1667 40.3333ZM11.275 11L15.675 20.1667H28.5083L33.55 11H11.275ZM9.53334 7.33333H39.7833L30.6625 23.8333H14.85L12.8333 27.5H34.8333V31.1667H6.64584L12.1 21.2667L5.50001 7.33333H1.83334V3.66666H7.79168L9.53334 7.33333Z" fill="#0BA9AC"/>
</svg>
