<svg width="41" height="30" viewBox="0 0 41 30" fill="none" xmlns="http://www.w3.org/2000/svg">
<path d="M22 23.925C23.3444 23.2833 24.6968 22.8018 26.0572 22.4803C27.4175 22.1589 28.8151 21.9988 30.25 22C31.35 22 32.4274 22.0917 33.4822 22.275C34.5369 22.4583 35.5984 22.7333 36.6667 23.1V4.95C35.6583 4.52222 34.6115 4.20139 33.5262 3.9875C32.4408 3.77361 31.3488 3.66667 30.25 3.66667C28.8139 3.66667 27.3931 3.85 25.9875 4.21667C24.5819 4.58333 23.2528 5.13333 22 5.86667V23.925ZM20.1667 29.3333C18.7 28.1722 17.1111 27.2708 15.4 26.6292C13.6889 25.9875 11.9167 25.6667 10.0833 25.6667C8.46389 25.6667 6.76806 25.9722 4.99583 26.5833C3.22361 27.1944 1.55833 28.1417 0 29.425V2.84167C1.34444 1.925 2.926 1.22222 4.74467 0.733334C6.56333 0.244445 8.34289 0 10.0833 0C11.8556 0 13.5899 0.229167 15.2863 0.6875C16.9828 1.14583 18.6096 1.83333 20.1667 2.75C21.725 1.83333 23.3524 1.14583 25.0488 0.6875C26.7453 0.229167 28.479 0 30.25 0C31.9917 0 33.7718 0.244445 35.5905 0.733334C37.4092 1.22222 38.9901 1.925 40.3333 2.84167V29.425C38.8056 28.1417 37.1476 27.1944 35.3595 26.5833C33.5714 25.9722 31.8682 25.6667 30.25 25.6667C28.4167 25.6667 26.6444 25.9875 24.9333 26.6292C23.2222 27.2708 21.6333 28.1722 20.1667 29.3333ZM23.8333 10.8167V7.7C24.8417 7.27222 25.8732 6.95139 26.928 6.7375C27.9828 6.52361 29.0901 6.41667 30.25 6.41667C31.0444 6.41667 31.8236 6.47778 32.5875 6.6C33.3514 6.72222 34.1 6.875 34.8333 7.05833V9.99167C34.1 9.71667 33.3587 9.51072 32.6095 9.37383C31.8603 9.23694 31.0738 9.16789 30.25 9.16667C29.0889 9.16667 27.9736 9.31211 26.9042 9.603C25.8347 9.89389 24.8111 10.2984 23.8333 10.8167ZM23.8333 20.9V17.7833C24.8417 17.3556 25.8732 17.0347 26.928 16.8208C27.9828 16.6069 29.0901 16.5 30.25 16.5C31.0444 16.5 31.8236 16.5611 32.5875 16.6833C33.3514 16.8056 34.1 16.9583 34.8333 17.1417V20.075C34.1 19.8 33.3587 19.5934 32.6095 19.4553C31.8603 19.3172 31.0738 19.2488 30.25 19.25C29.0889 19.25 27.9736 19.3875 26.9042 19.6625C25.8347 19.9375 24.8111 20.35 23.8333 20.9ZM23.8333 15.8583V12.7417C24.8417 12.3139 25.8732 11.9931 26.928 11.7792C27.9828 11.5653 29.0901 11.4583 30.25 11.4583C31.0444 11.4583 31.8236 11.5194 32.5875 11.6417C33.3514 11.7639 34.1 11.9167 34.8333 12.1V15.0333C34.1 14.7583 33.3587 14.5518 32.6095 14.4137C31.8603 14.2756 31.0738 14.2071 30.25 14.2083C29.0889 14.2083 27.9736 14.3538 26.9042 14.6447C25.8347 14.9356 24.8111 15.3401 23.8333 15.8583Z" fill="#0BA9AC"/>
</svg>
