<svg width="25" height="25" viewBox="0 0 25 25" fill="none" xmlns="http://www.w3.org/2000/svg">
<path d="M12.5 16.25C13.5417 16.25 14.4271 15.8854 15.1563 15.1562C15.8854 14.4271 16.25 13.5417 16.25 12.5C16.25 11.4583 15.8854 10.5729 15.1563 9.84375C14.4271 9.11458 13.5417 8.75 12.5 8.75C11.4583 8.75 10.5729 9.11458 9.84375 9.84375C9.11459 10.5729 8.75 11.4583 8.75 12.5C8.75 13.5417 9.11459 14.4271 9.84375 15.1562C10.5729 15.8854 11.4583 16.25 12.5 16.25ZM12.5 25C10.7708 25 9.14584 24.6717 7.625 24.015C6.10417 23.3583 4.78125 22.4679 3.65625 21.3438C2.53125 20.2196 1.64084 18.8967 0.985002 17.375C0.329168 15.8533 0.000834916 14.2283 1.58228e-06 12.5C-0.000831751 10.7717 0.327502 9.14667 0.985002 7.625C1.6425 6.10333 2.53292 4.78042 3.65625 3.65625C4.77959 2.53208 6.1025 1.64167 7.625 0.985C9.1475 0.328333 10.7725 0 12.5 0C14.2275 0 15.8525 0.328333 17.375 0.985C18.8975 1.64167 20.2204 2.53208 21.3438 3.65625C22.4671 4.78042 23.3579 6.10333 24.0163 7.625C24.6746 9.14667 25.0025 10.7717 25 12.5C24.9975 14.2283 24.6692 15.8533 24.015 17.375C23.3608 18.8967 22.4704 20.2196 21.3438 21.3438C20.2171 22.4679 18.8942 23.3587 17.375 24.0162C15.8558 24.6737 14.2308 25.0017 12.5 25Z" fill="#0BA9AC"/>
</svg>
