<svg width="38" height="37" viewBox="0 0 38 37" fill="none" xmlns="http://www.w3.org/2000/svg">
<path d="M11 36.6667C9.99167 36.6667 9.12878 36.3079 8.41133 35.5905C7.69389 34.8731 7.33456 34.0096 7.33333 33C7.33211 31.9904 7.69144 31.1276 8.41133 30.4113C9.13122 29.6951 9.99411 29.3358 11 29.3333C12.0059 29.3309 12.8694 29.6902 13.5905 30.4113C14.3116 31.1324 14.6703 31.9953 14.6667 33C14.663 34.0047 14.3043 34.8682 13.5905 35.5905C12.8767 36.3128 12.0132 36.6716 11 36.6667ZM29.3333 36.6667C28.325 36.6667 27.4621 36.3079 26.7447 35.5905C26.0272 34.8731 25.6679 34.0096 25.6667 33C25.6654 31.9904 26.0248 31.1276 26.7447 30.4113C27.4646 29.6951 28.3274 29.3358 29.3333 29.3333C30.3392 29.3309 31.2027 29.6902 31.9238 30.4113C32.6449 31.1324 33.0037 31.9953 33 33C32.9963 34.0047 32.6376 34.8682 31.9238 35.5905C31.2101 36.3128 30.3466 36.6716 29.3333 36.6667ZM9.44167 7.33333L13.8417 16.5H26.675L31.7167 7.33333H9.44167ZM7.7 3.66667H37.95L28.8292 20.1667H13.0167L11 23.8333H33V27.5H4.8125L10.2667 17.6L3.66667 3.66667H0V0H5.95833L7.7 3.66667Z" fill="#0BA9AC"/>
</svg>
