<svg width="30" height="30" viewBox="0 0 30 30" fill="none" xmlns="http://www.w3.org/2000/svg">
<path d="M14.6667 14.6667C12.65 14.6667 10.9236 13.9486 9.4875 12.5125C8.05139 11.0764 7.33333 9.35 7.33333 7.33333C7.33333 5.31667 8.05139 3.59028 9.4875 2.15417C10.9236 0.718056 12.65 0 14.6667 0C16.6833 0 18.4097 0.718056 19.8458 2.15417C21.2819 3.59028 22 5.31667 22 7.33333C22 9.35 21.2819 11.0764 19.8458 12.5125C18.4097 13.9486 16.6833 14.6667 14.6667 14.6667ZM0 29.3333V24.2C0 23.1611 0.267667 22.2066 0.803 21.3363C1.33833 20.4661 2.04844 19.8012 2.93333 19.3417C4.82778 18.3944 6.75278 17.6843 8.70833 17.2113C10.6639 16.7383 12.65 16.5012 14.6667 16.5C16.6833 16.4988 18.6694 16.7359 20.625 17.2113C22.5806 17.6868 24.5056 18.3969 26.4 19.3417C27.2861 19.8 27.9968 20.4649 28.5322 21.3363C29.0675 22.2078 29.3346 23.1623 29.3333 24.2V29.3333H0Z" fill="#0BA9AC"/>
</svg>
