<svg width="33" height="33" viewBox="0 0 33 33" fill="none" xmlns="http://www.w3.org/2000/svg">
<path d="M11.9167 23.8333C8.58611 23.8333 5.76767 22.6796 3.46133 20.372C1.155 18.0644 0.00122319 15.246 9.70018e-07 11.9167C-0.00122125 8.58733 1.15256 5.76889 3.46133 3.46133C5.77011 1.15378 8.58856 0 11.9167 0C15.2448 0 18.0638 1.15378 20.3738 3.46133C22.6838 5.76889 23.837 8.58733 23.8333 11.9167C23.8333 13.2611 23.6194 14.5292 23.1917 15.7208C22.7639 16.9125 22.1833 17.9667 21.45 18.8833L31.7167 29.15C32.0528 29.4861 32.2208 29.9139 32.2208 30.4333C32.2208 30.9528 32.0528 31.3806 31.7167 31.7167C31.3806 32.0528 30.9528 32.2208 30.4333 32.2208C29.9139 32.2208 29.4861 32.0528 29.15 31.7167L18.8833 21.45C17.9667 22.1833 16.9125 22.7639 15.7208 23.1917C14.5292 23.6194 13.2611 23.8333 11.9167 23.8333ZM11.9167 20.1667C14.2083 20.1667 16.1566 19.3649 17.7613 17.7613C19.3661 16.1578 20.1679 14.2096 20.1667 11.9167C20.1654 9.62378 19.3637 7.67617 17.7613 6.07383C16.159 4.4715 14.2108 3.66911 11.9167 3.66667C9.62256 3.66422 7.67495 4.46661 6.07384 6.07383C4.47272 7.68106 3.67033 9.62867 3.66667 11.9167C3.663 14.2047 4.46539 16.1529 6.07384 17.7613C7.68228 19.3698 9.62989 20.1716 11.9167 20.1667Z" fill="#0BA9AC"/>
</svg>
